<mxfile host="Electron" modified="2023-09-19T14:49:27.483Z" agent="Mozilla/5.0 (X11; Linux x86_64) AppleWebKit/537.36 (KHTML, like Gecko) draw.io/21.6.8 Chrome/114.0.5735.289 Electron/25.5.0 Safari/537.36" etag="ACibFKN5gUSmvq-r5nOc" version="21.6.8" type="device">
  <diagram name="Page-1" id="lbdgc8jMhL7B5jz6P2VJ">
    <mxGraphModel dx="1433" dy="878" grid="1" gridSize="10" guides="1" tooltips="1" connect="1" arrows="1" fold="1" page="1" pageScale="1" pageWidth="827" pageHeight="1169" math="0" shadow="0">
      <root>
        <mxCell id="0" />
        <mxCell id="1" parent="0" />
        <mxCell id="9SAIgE2xZG0ANoVtEF0G-4" value="" style="edgeStyle=orthogonalEdgeStyle;rounded=0;orthogonalLoop=1;jettySize=auto;html=1;" parent="1" source="9SAIgE2xZG0ANoVtEF0G-1" target="9SAIgE2xZG0ANoVtEF0G-2" edge="1">
          <mxGeometry relative="1" as="geometry" />
        </mxCell>
        <mxCell id="9SAIgE2xZG0ANoVtEF0G-1" value="Individual Path Finding" style="rounded=0;whiteSpace=wrap;html=1;" parent="1" vertex="1">
          <mxGeometry x="200" y="160" width="120" height="60" as="geometry" />
        </mxCell>
        <mxCell id="9SAIgE2xZG0ANoVtEF0G-2" value="Path Selection" style="rounded=0;whiteSpace=wrap;html=1;" parent="1" vertex="1">
          <mxGeometry x="400" y="160" width="120" height="60" as="geometry" />
        </mxCell>
        <mxCell id="9SAIgE2xZG0ANoVtEF0G-3" value="Solving" style="rounded=0;whiteSpace=wrap;html=1;" parent="1" vertex="1">
          <mxGeometry x="600" y="160" width="120" height="60" as="geometry" />
        </mxCell>
        <mxCell id="9SAIgE2xZG0ANoVtEF0G-5" value="" style="endArrow=classic;html=1;rounded=0;exitX=1;exitY=0.5;exitDx=0;exitDy=0;entryX=0;entryY=0.5;entryDx=0;entryDy=0;" parent="1" source="9SAIgE2xZG0ANoVtEF0G-2" target="9SAIgE2xZG0ANoVtEF0G-3" edge="1">
          <mxGeometry width="50" height="50" relative="1" as="geometry">
            <mxPoint x="470" y="480" as="sourcePoint" />
            <mxPoint x="520" y="430" as="targetPoint" />
          </mxGeometry>
        </mxCell>
        <mxCell id="iLEGPavze8cVoNQy4xlX-2" value="" style="edgeStyle=orthogonalEdgeStyle;rounded=0;orthogonalLoop=1;jettySize=auto;html=1;" edge="1" parent="1" source="iLEGPavze8cVoNQy4xlX-1" target="9SAIgE2xZG0ANoVtEF0G-1">
          <mxGeometry relative="1" as="geometry" />
        </mxCell>
        <mxCell id="iLEGPavze8cVoNQy4xlX-1" value="Input instance" style="rounded=0;whiteSpace=wrap;html=1;dashed=1;" vertex="1" parent="1">
          <mxGeometry y="160" width="120" height="60" as="geometry" />
        </mxCell>
      </root>
    </mxGraphModel>
  </diagram>
</mxfile>
